<svg width="10" height="14" viewBox="0 0 10 14" fill="none" xmlns="http://www.w3.org/2000/svg">
<path d="M4.97778 0C2.23305 0 0 2.18306 0 4.86633C0 8.23893 4.98267 14 4.98267 14C4.98267 14 9.95556 8.07307 9.95556 4.86633C9.95556 2.18306 7.72259 0 4.97778 0ZM6.47968 6.2912C6.06555 6.69597 5.52171 6.8984 4.97778 6.8984C4.43394 6.8984 3.88992 6.69597 3.47597 6.2912C2.64779 5.48165 2.64779 4.16437 3.47597 3.35474C3.87699 2.96252 4.41042 2.74651 4.97778 2.74651C5.54513 2.74651 6.07848 2.96261 6.47968 3.35474C7.30785 4.16437 7.30785 5.48165 6.47968 6.2912Z" fill="#58595B"/>
</svg>
