<svg width="20" height="20" viewBox="0 0 20 20" fill="none" xmlns="http://www.w3.org/2000/svg">
<path d="M19.7544 18.5905L14.9456 13.7791C16.1813 12.275 16.8567 10.3882 16.8565 8.44117C16.8571 7.3333 16.6397 6.23614 16.2165 5.21236C15.7934 4.18857 15.1728 3.2582 14.3903 2.47436C13.6078 1.69053 12.6786 1.06859 11.6558 0.644033C10.6331 0.219479 9.53675 0.000637075 8.42946 0C6.19383 0 4.04978 0.888569 2.46895 2.47023C0.888116 4.05189 0 6.19709 0 8.4339C0 10.6707 0.888116 12.8159 2.46895 14.3976C4.04978 15.9792 6.19383 16.8678 8.42946 16.8678C10.3751 16.8706 12.2612 16.1964 13.7646 14.9607L18.5758 19.7551C18.6531 19.8327 18.745 19.8943 18.8461 19.9363C18.9472 19.9784 19.0556 20 19.1651 20C19.2746 20 19.383 19.9784 19.4842 19.9363C19.5853 19.8943 19.6771 19.8327 19.7544 19.7551C19.8322 19.6782 19.894 19.5865 19.9361 19.4855C19.9783 19.3845 20 19.2762 20 19.1667C20 19.0573 19.9783 18.9489 19.9361 18.8479C19.894 18.7469 19.8322 18.6553 19.7544 18.5784V18.5905ZM8.42704 15.1936C6.63622 15.193 4.91888 14.4813 3.65213 13.2148C2.38538 11.9482 1.67279 10.2305 1.67086 8.43874C1.6715 6.64528 2.3837 4.92543 3.65098 3.65703C4.91825 2.38864 6.63694 1.67544 8.42946 1.67415C10.2205 1.67672 11.9375 2.38973 13.204 3.65687C14.4705 4.92401 15.1831 6.6419 15.1856 8.4339C15.1824 10.2253 14.4694 11.9423 13.203 13.2085C11.9365 14.4747 10.2199 15.1869 8.42946 15.1888L8.42704 15.1936Z" fill="#828282"/>
</svg>
