<svg width="36" height="35" viewBox="0 0 36 35" fill="none" xmlns="http://www.w3.org/2000/svg">
<path d="M1 18.5113C1 17.8457 1 17.1802 1 16.5147C1.02803 16.2816 1.05607 16.0524 1.0841 15.8193C1.36246 13.1755 2.31172 10.6398 3.84703 8.43883C5.11586 6.55742 6.76971 4.94897 8.70598 3.71344C10.6423 2.4779 12.8196 1.64165 15.1029 1.25643C15.7316 1.14378 16.3683 1.08545 17.0009 0.999992H19.0031C19.5717 1.06991 20.1443 1.12431 20.7049 1.21366C23.8659 1.71158 26.8135 3.07864 29.1979 5.15257C32.1191 7.61593 34.0751 10.9813 34.7357 14.6811C34.8478 15.291 34.9119 15.9086 35 16.5224V18.4646C34.952 18.853 34.9159 19.2415 34.8559 19.6299C34.1471 24.1942 31.9368 27.9273 28.1127 30.6697C25.0775 32.8489 21.7059 34.1657 17.8178 33.9832C17.2532 33.9599 16.6806 34.0336 16.128 33.956C12.0397 33.463 8.26976 31.562 5.50477 28.5992C3.29049 26.2791 1.81628 23.3865 1.26029 20.2709C1.15217 19.6766 1.08409 19.0784 1 18.5113ZM29.1418 28.1565C34.8558 22.7182 35.4284 12.8477 29.0617 6.70248C27.5212 5.2258 25.6831 4.07354 23.6623 3.31788C21.6416 2.56222 19.4818 2.21938 17.3182 2.31091C15.1546 2.40244 13.0337 2.92638 11.0885 3.84981C9.14323 4.77324 7.41543 6.07633 6.01331 7.67749C0.407381 14.1218 1.69274 23.3941 6.86622 28.1526C8.09952 27.2552 9.52103 26.7269 10.9425 26.1831C11.521 25.9724 12.0877 25.7325 12.6403 25.4644C13.0221 25.2735 13.3706 25.0258 13.6734 24.7303C13.8695 24.5132 13.9887 24.241 14.0138 23.9534C14.0617 23.3655 14.0777 22.7755 14.0618 22.186C14.0526 22.0452 14.0011 21.9102 13.9137 21.7975C13.3214 21.0196 12.8816 20.1427 12.6163 19.2105C12.5622 19.0313 12.4583 18.8701 12.316 18.7444C11.387 17.9675 10.9986 16.3243 11.5672 15.3338C11.6991 15.1056 11.7323 14.8359 11.6593 14.584C11.2848 13.0998 11.206 11.5599 11.4271 10.047C11.7714 8.06976 12.7885 6.57812 14.7466 5.77403C15.8555 5.32759 17.057 5.14002 18.2543 5.22636C18.9605 5.24277 19.6567 5.39179 20.3044 5.66526C21.1694 6.08867 22.0423 6.516 22.8872 6.97437C24.1525 7.66192 24.601 8.88168 24.7732 10.2063C24.9237 11.7272 24.7798 13.2621 24.3487 14.7317C24.3008 14.8785 24.3094 15.0372 24.3728 15.1783C25.1175 16.2893 24.4689 18.1655 23.644 18.7598C23.5242 18.8654 23.4346 18.9992 23.3837 19.1483C23.0994 19.8086 22.9392 20.5506 22.5268 21.1177C22.0668 21.7584 21.8685 22.5419 21.9702 23.3164C21.9799 23.434 21.9799 23.5522 21.9702 23.6699C21.9367 23.9503 21.9909 24.234 22.1259 24.4841C22.2609 24.7342 22.4703 24.9391 22.727 25.0721C23.3229 25.4169 23.9423 25.7219 24.581 25.985C26.1466 26.6026 27.7563 27.1271 29.1418 28.1409V28.1565ZM28.0406 29.0848L28.0647 28.9566C27.2358 28.5681 26.4069 28.2108 25.57 27.8496C24.613 27.4339 23.636 27.0726 22.691 26.622C22.0751 26.344 21.54 25.9223 21.1333 25.3945C20.8233 25.0267 20.6498 24.5684 20.6408 24.0933C20.6408 23.2892 20.6408 22.485 20.5967 21.681C20.5967 21.4013 20.6248 21.1994 20.9331 21.0712C21.1004 20.9881 21.2322 20.8506 21.3055 20.6827C21.5698 20.0962 21.8301 19.5173 22.0423 18.8997C22.1348 18.5466 22.1978 18.1867 22.2305 17.8237L22.5068 17.7965C23.0073 17.7538 23.0874 17.6994 23.1995 17.2216C23.271 16.9183 23.3218 16.6108 23.3517 16.301C23.3808 16.1891 23.3682 16.0709 23.3162 15.9671C23.2642 15.8633 23.1761 15.7807 23.0674 15.7339C22.667 15.5863 22.707 15.3726 22.8191 15.0347C23.4003 13.5199 23.6127 11.8954 23.4398 10.2878C23.2355 8.86613 22.4467 7.85616 20.8811 7.66971C20.814 7.66211 20.7492 7.64127 20.6906 7.60854C20.6321 7.57581 20.5811 7.53189 20.5407 7.47937C20.4196 7.26254 20.2479 7.07617 20.0393 6.9352C19.8307 6.79424 19.5911 6.70254 19.3394 6.66748C17.8986 6.37992 16.4017 6.52353 15.0469 7.07926C14.5454 7.27377 14.0954 7.57511 13.7301 7.96104C13.3649 8.34698 13.0937 8.80765 12.9367 9.30895C12.7764 9.79961 12.6756 10.3067 12.6363 10.82C12.5738 12.3024 12.7728 13.7843 13.225 15.2017C13.289 15.427 13.285 15.5901 13.0328 15.6833C12.8909 15.736 12.7742 15.8378 12.7054 15.9692C12.6366 16.1005 12.6206 16.252 12.6604 16.3942C12.6844 16.5768 12.7044 16.7555 12.7404 16.9341C12.8966 17.711 12.9046 17.7344 13.7215 17.8198C13.7215 17.8198 13.7575 17.8199 13.7976 17.8626C13.7976 17.9558 13.8216 18.0607 13.8296 18.1656C13.907 19.0354 14.1981 19.8745 14.6785 20.6127C14.8512 20.8159 15.0429 21.0032 15.2511 21.1722C15.3232 21.246 15.4193 21.3508 15.4193 21.4402C15.4193 22.3219 15.4193 23.1999 15.4193 24.0816C15.4129 24.6471 15.1769 25.1872 14.7626 25.5849C14.5051 25.8651 14.2102 26.1108 13.8857 26.3152C13.3085 26.6519 12.7108 26.954 12.0958 27.2202C11.0466 27.6747 9.97752 28.0787 8.9244 28.5216C8.59606 28.6614 8.29174 28.8595 7.93136 29.0537C10.464 31.1788 13.6466 32.4373 16.9889 32.6353C21.1774 32.915 24.7451 31.4038 28.0406 29.0692V29.0848Z" fill="#58595B" stroke="#58595B"/>
</svg>
