<svg id="Layer_1" data-name="Layer 1" xmlns="http://www.w3.org/2000/svg" viewBox="0 0 106.74 87.38"><title>Монтажная область 20</title><path fill="#58595B" d="M41.55,59.69c.06.52.12.88.14,1.24.05.93.5,1.22,1.46,1.31a9.46,9.46,0,0,1,6.77,3.83,2.08,2.08,0,0,0,1.41.73q14.73.06,29.46,0c.36,0,.9-.1,1-.34,1.57-2.57,4.09-3.32,6.83-3.55,4.86-.41,9.09.82,11.7,5.29,4.3,7.37,1.28,16.1-6.32,18.58a11,11,0,0,1-12.64-4.2A26.76,26.76,0,0,1,79,78.06c-.25-.53-.43-.8-1.07-.8q-11.92,0-23.85,0c-.66,0-.84.31-1.05.83-1.67,4.16-4.47,7.26-8.81,8.59-5.66,1.74-12-1.94-13.87-8a12.7,12.7,0,0,1,2-11.66,1.69,1.69,0,0,0,.37-1.58q-6.33-27-12.59-54c-.16-.71-.41-1-1.22-1-5.86.05-11.72,0-17.58.05-.66,0-1.37,0-1.37-.84C0,7.27,0,4.88.2,2.52.38.71,1.46,0,3.33,0H22.12C25.37,0,27.31,1.56,28,4.77c.6,2.83,1.2,5.65,1.68,8.5.16.93.57,1.07,1.38,1.07q15.84,0,31.66,0H101.4a10.76,10.76,0,0,1,2,.19c2.74.47,4,2.52,3.1,5.15Q100.21,38.31,93.93,57a3.3,3.3,0,0,1-3.13,2.6c-.73,0-1.46.13-2.19.13H41.55Zm-.1,20.53a4.6,4.6,0,1,0-4.57-4.66A4.67,4.67,0,0,0,41.45,80.22Zm49.2-9.11a4.51,4.51,0,0,0-4.6,4.45,4.54,4.54,0,1,0,9.08.11A4.5,4.5,0,0,0,90.65,71.11Z"/></svg>